<?xml version="1.0" encoding="UTF-8" standalone="no"?>
<svg
   xmlns:dc="http://purl.org/dc/elements/1.1/"
   xmlns:cc="http://creativecommons.org/ns#"
   xmlns:rdf="http://www.w3.org/1999/02/22-rdf-syntax-ns#"
   xmlns:svg="http://www.w3.org/2000/svg"
   xmlns="http://www.w3.org/2000/svg"
   id="svg4"
   version="1.1"
   fill="none"
   viewBox="0 0 24 24"
   height="24"
   width="24">
  <metadata
     id="metadata10">
    <rdf:RDF>
      <cc:Work
         rdf:about="">
        <dc:format>image/svg+xml</dc:format>
        <dc:type
           rdf:resource="http://purl.org/dc/dcmitype/StillImage" />
        <dc:title></dc:title>
      </cc:Work>
    </rdf:RDF>
  </metadata>
  <defs
     id="defs8" />
  <path
     style="stroke:#000000;stroke-opacity:1"
     id="path2"
     stroke-linejoin="round"
     stroke-linecap="round"
     stroke-width="2"
     stroke="#4A5568"
     d="M3 19V10.0704C3 9.40165 3.3342 8.77718 3.8906 8.40625L10.8906 3.73959C11.5624 3.29172 12.4376 3.29172 13.1094 3.73959L20.1094 8.40625C20.6658 8.77718 21 9.40165 21 10.0704V19M3 19C3 20.1046 3.89543 21 5 21H19C20.1046 21 21 20.1046 21 19M3 19L9.75 14.5M21 19L14.25 14.5M3 9.99999L9.75 14.5M21 9.99999L14.25 14.5M14.25 14.5L13.1094 15.2604C12.4376 15.7083 11.5624 15.7083 10.8906 15.2604L9.75 14.5" />
</svg>
